# xmcd
#
# Track frame offsets:
#	150
#	17541
#	36713
#	52687
#	66072
#	101240
#	114738
#	136719
#	153448
#	172086
#	184959
#	199453
#
# Disc length: 2877 seconds
# Revision: 0
# Processed by: cddbd v1.5.2PL0 Copyright (c) Steve Scherf et al.
# Submitted via: dBpowerAMP V12.0
#
DISCID=ab0b3b0c
DTITLE=New Mastersounds, The - This Is What We Do
DYEAR=2005
DGENRE=Pop/Rock
TTITLE0=Zambezi
TTITLE1=All I Want (Right Now)
TTITLE2=The Tin Drum
TTITLE3=You Got It All
TTITLE4=Land Of Nod
TTITLE5=Ain't No Telling
TTITLE6=The Minx
TTITLE7=Afternoon At Gigi's
TTITLE8=Pure
TTITLE9=La Cova
TTITLE10=Baby Bouncer
TTITLE11=The Vandenburg Suite
EXTD=
EXTT0=
EXTT1=
EXTT2=
EXTT3=
EXTT4=
EXTT5=
EXTT6=
EXTT7=
EXTT8=
EXTT9=
EXTT10=
EXTT11=
PLAYORDER=
